PathFileType	4	(X/Y/Z)	39_1_49_p1_0-491_filt_butterworth.trc
DataRate	CameraRate	NumFrames	NumMarkers	Units	OrigDataRate	OrigDataStartFrame	OrigNumFrames
59.0	59.0	5	27	m	59.0	184	491
Frame#	Time	RHip			RKnee			RAnkle			RBigToe			RSmallToe			RHeel			LHip			LKnee			LAnkle			LBigToe			LSmallToe			LHeel			Neck			Head			Nose			RShoulder			RElbow			RWrist			RThumb			RIndex			RPinky			LShoulder			LElbow			LWrist			LThumb			LIndex			LPinky			
		X1	Y1	Z1	X2	Y2	Z2	X3	Y3	Z3	X4	Y4	Z4	X5	Y5	Z5	X6	Y6	Z6	X7	Y7	Z7	X8	Y8	Z8	X9	Y9	Z9	X10	Y10	Z10	X11	Y11	Z11	X12	Y12	Z12	X13	Y13	Z13	X14	Y14	Z14	X15	Y15	Z15	X16	Y16	Z16	X17	Y17	Z17	X18	Y18	Z18	X19	Y19	Z19	X20	Y20	Z20	X21	Y21	Z21	X22	Y22	Z22	X23	Y23	Z23	X24	Y24	Z24	X25	Y25	Z25	X26	Y26	Z26	X27	Y27	Z27	
184	3.1186440677966103	0.2873501526960676	0.6584430051310133	0.4832974457582528	0.26129979624359995	0.7525699806461681	0.9260823284507995	0.236279741881933	0.8427069815809416	1.3220749493640427	0.22586986332390896	0.665687947104091	1.3525071657529484	0.2903984731764857	0.6702723310153913	1.3533753813211111	0.2044773366797422	0.9517527501917215	1.3908185130657862	0.07176340000354028	0.6729317861797961	0.4739128460088257	0.049224672199726045	0.7527072215008477	0.8957407788840365	0.040622138244984944	0.822781444113099	1.3025611351573823	0.06578282410054409	0.6251119706100978	1.313822649915826	0.008859773782959842	0.6795864022162967	1.3291096090540102	0.04775732785029631	0.8801964449925622	1.3626967690733718	0.22695751429922378	0.6475949789516686	-0.055024301081182066	0.25414446760043774	0.5237892445955304	-0.2848687377131932	0.2449453547104959	0.47948158161730814	-0.14510356193769275	0.38515888455490466	0.6325238733961166	0.02983418500133798	0.37788129287542604	0.6067151409989225	0.27599390517524297	0.2550597237751287	0.4006011512221453	0.35404940692409925	0.17776738099262493	0.34587094394703477	0.38208729117265344	0.14222150683692222	0.34994982437562683	0.4010546864886133	0.16299900276947854	0.3917007030412688	0.4380041999157004	0.07221377812495135	0.6394760024073622	0.015026056632330614	0.02105200565381469	0.6059943590133554	0.2600685733015994	0.09339917273114874	0.46807211650876124	0.41518581420105327	0.13690189840436717	0.33151988424550366	0.42970802015202264	0.12203221224197698	0.31241240759497385	0.46422520502620124	0.12434873774032212	0.3725001012620734	0.4893874073532707
185	3.135593220338983	0.2872026095344625	0.6579826353151297	0.4832904070183433	0.26137191965152373	0.7526852475954524	0.9277876721795819	0.23710666171345418	0.842147079093709	1.3210172182896258	0.22583485460584624	0.6656041627428977	1.3525202486006593	0.29154609560148875	0.6705153093682009	1.3535361571148123	0.20445201688227008	0.9522412258467556	1.3899436214738312	0.07193888823379646	0.6741941789804244	0.47304639912878904	0.04931076438235497	0.7529335994618584	0.8929613770300553	0.0405071483887677	0.8221733647838121	1.3009938630887417	0.0657923890824442	0.6251146522196314	1.3138283294194535	0.008770396402643058	0.6788145986792753	1.3270325253829909	0.04797209171101153	0.8805141500470173	1.3626923916305353	0.22525031976465817	0.6523538186246235	-0.05502438509552128	0.253642866518591	0.5249956564241256	-0.2846043272512062	0.2450060901887393	0.47966939411004283	-0.14476272957235672	0.382735324945374	0.6271944092388896	0.027367017609422638	0.37525244268935815	0.60853855503701	0.27574185538084667	0.24855224242408358	0.40670392644034414	0.35265515076842496	0.16325873262361534	0.3426405266047282	0.38425991947688154	0.13299542900639555	0.3416687400351269	0.4037253040400613	0.1560625785561188	0.39529990404353565	0.4471798414928741	0.07224392133565014	0.6395044406230841	0.015012093225534772	0.02180541126807274	0.6060415505711452	0.2588948052783916	0.09755867635597537	0.4643916819563117	0.4110722571757271	0.13328353741761326	0.3130737869343835	0.410566301986481	0.12284739895264601	0.3121118378139098	0.4575658587461441	0.13054520152681726	0.37860981977695174	0.4878541470283103
186	3.152542372881356	0.28709294037873034	0.6589286038548062	0.48279499648102153	0.26142193764392385	0.7526774224163032	0.9282463834737354	0.23738740634748204	0.8422930822185709	1.3201003425998767	0.22582471659767403	0.6655561855803663	1.3525249876738168	0.29310224398269064	0.6710531032956596	1.353791357353134	0.20440785841222248	0.9527520443088225	1.3886329846427878	0.07334222134515092	0.679258387625831	0.47261532914155824	0.049171229634919614	0.7532806376046536	0.891981556357794	0.040342343223356	0.8213633670201438	1.2989554138953523	0.06579174188796158	0.6251062246373496	1.3138259676079078	0.008674226257576552	0.6782882677436858	1.3253902832397362	0.048067841419331916	0.8809247475559959	1.3628499874845432	0.22351606593331036	0.6558177617701779	-0.055056606032419624	0.25360686801570076	0.5250882675401458	-0.2845160672621667	0.24490796166137013	0.4799057762839629	-0.14463835885947926	0.38127381972970986	0.6236149006794899	0.025842036969715106	0.3728476499556258	0.6088997215463648	0.2756176261450533	0.24085556388067453	0.4145760205558547	0.35175274620904307	0.14545232961198162	0.3390783781873731	0.39149741508337477	0.12713015219495385	0.3311721498697086	0.4076239041724782	0.15072613750474528	0.3973421549885435	0.4532857732360242	0.07232538832426419	0.6393399950790324	0.01501745738250065	0.022319241469458545	0.6069909279173813	0.2580299374195879	0.1018252577743334	0.45835975557926983	0.40664355089094545	0.1290450863958903	0.30068919361840224	0.39746373144853153	0.12352296699273357	0.3119025855527211	0.4503899814974327	0.13683104729668133	0.3788899365516601	0.4853491058863015
187	3.169491525423729	0.2870876478766483	0.6593252693913584	0.4817493078754751	0.26148806379987144	0.752692228238161	0.9282760852702564	0.23740965180615325	0.8424637244141031	1.3196843287924822	0.22583521036186371	0.6655612011415764	1.3525263514829244	0.2943434792208599	0.6715701102895228	1.3540248275912075	0.20436995361290097	0.9530746399391581	1.3875172094435309	0.07448637118677873	0.686520925697549	0.47276244428457725	0.048833743839115415	0.7536968491268172	0.8920614957878346	0.040214069633864	0.820798804382759	1.2974488590837863	0.06578710448311446	0.625097789351889	1.3138205340971993	0.008607578681076564	0.6780841266210501	1.3246218649934802	0.04806446751743115	0.881051955165711	1.3629391688264214	0.22187023391348867	0.6569085499510331	-0.0549978389314275	0.25370896765448947	0.5250402700529716	-0.284543357243287	0.2442646596448947	0.47967777621608665	-0.14460076965841365	0.3808906487518796	0.6224276922856642	0.025422296574365427	0.37133813786211645	0.6084949930765098	0.27566577639660783	0.23426068397575445	0.41926038825780043	0.35055813617232007	0.13187646869732772	0.33413516680594163	0.3980749240843517	0.1237236804912656	0.3206441674787106	0.40923259397087414	0.14554989767238619	0.39779853158961226	0.4542783568234723	0.07244815255043163	0.6390137204751463	0.01505766585073154	0.023465410325767398	0.6072317903423355	0.25771799446569016	0.10586301118653768	0.4524129021629464	0.402368749553607	0.12586567391952175	0.29752375264322517	0.392868608061598	0.1240126436276874	0.3104235088358224	0.44249586879654174	0.14150964662250914	0.37384738841184073	0.4803111065631611
188	3.1864406779661016	0.2876166838100608	0.659360773953298	0.4807601985340688	0.2615257382832518	0.7525611797546747	0.9282178602823496	0.2373891155992517	0.8424836153632206	1.3196441922942455	0.22584878465755237	0.6656203167368744	1.3525411277830584	0.2949318609244148	0.6718878392055884	1.3541676757622454	0.2043494754531575	0.9531222292093802	1.3869411745530709	0.07500152047729561	0.6914065470049375	0.47286917182471677	0.04847665440346031	0.7540960853942231	0.8923406245058323	0.04019872577482928	0.8207913325814379	1.2969150799572673	0.06578313973863877	0.6251037224759833	1.3138198509161947	0.008581197494991158	0.678098397051908	1.3245555460319962	0.047982437106153325	0.8807703605264026	1.3629193055739686	0.22034518726373856	0.6565416588527692	-0.05455876769059861	0.2537122494676848	0.5248912513981492	-0.2845768102982558	0.24269414683924423	0.4780329374903797	-0.14457837133960275	0.3810030750706658	0.6224411920663445	0.025258536989441565	0.3708035811048196	0.6079958052099224	0.27567962799361767	0.23115484935968897	0.4183310929268279	0.3481554681863354	0.12576285109083118	0.33040889548961994	0.399594282680986	0.12227438400879592	0.31438282038394233	0.40648171443849246	0.14053860074348679	0.39692937247141186	0.4497324953012789	0.07245669308468715	0.638981915294917	0.015124770056028466	0.02529255150755524	0.606570622383436	0.25733764696437045	0.10896727223098002	0.4473751561569397	0.398479030236294	0.12401612266919543	0.2985260703486863	0.3923278660723332	0.1241264489863781	0.30621373479311986	0.4326203679878846	0.14326590863796104	0.368109314497171	0.4728170798081655
